<?xml version="1.0" encoding="UTF-8"?>
<svg xmlns="http://www.w3.org/2000/svg" xmlns:xlink="http://www.w3.org/1999/xlink" width="375pt" height="374.999991pt" viewBox="0 0 375 374.999991" version="1.2">
<g id="surface1">
<rect x="0" y="0" width="375" height="374.999991" style="fill:rgb(100%,100%,100%);fill-opacity:1;stroke:none;"/>
<rect x="0" y="0" width="375" height="374.999991" style="fill:rgb(100%,100%,100%);fill-opacity:1;stroke:none;"/>
<path style=" stroke:none;fill-rule:nonzero;fill:rgb(100%,36.079407%,36.079407%);fill-opacity:1;" d="M 176.195312 150.0625 C 175.453125 150.0625 174.714844 150.132812 173.988281 150.277344 C 173.261719 150.421875 172.554688 150.636719 171.867188 150.921875 C 171.183594 151.207031 170.53125 151.554688 169.914062 151.964844 C 169.296875 152.378906 168.726562 152.847656 168.199219 153.371094 C 167.675781 153.898438 167.207031 154.46875 166.792969 155.085938 C 166.382812 155.703125 166.03125 156.355469 165.75 157.039062 C 165.464844 157.726562 165.25 158.433594 165.105469 159.160156 C 164.960938 159.890625 164.886719 160.625 164.886719 161.367188 C 164.886719 162.109375 164.960938 162.84375 165.105469 163.570312 C 165.25 164.300781 165.464844 165.007812 165.75 165.691406 C 166.03125 166.378906 166.382812 167.03125 166.792969 167.648438 C 167.207031 168.265625 167.675781 168.835938 168.199219 169.359375 C 168.726562 169.886719 169.296875 170.355469 169.914062 170.765625 C 170.53125 171.179688 171.183594 171.527344 171.867188 171.8125 C 172.554688 172.09375 173.261719 172.308594 173.988281 172.453125 C 174.714844 172.601562 175.453125 172.671875 176.195312 172.671875 C 176.9375 172.671875 177.671875 172.601562 178.398438 172.453125 C 179.128906 172.308594 179.835938 172.09375 180.519531 171.8125 C 181.207031 171.527344 181.859375 171.179688 182.476562 170.765625 C 183.09375 170.355469 183.664062 169.886719 184.1875 169.359375 C 184.714844 168.835938 185.183594 168.265625 185.59375 167.648438 C 186.007812 167.03125 186.355469 166.378906 186.640625 165.691406 C 186.921875 165.007812 187.136719 164.300781 187.28125 163.570312 C 187.425781 162.84375 187.5 162.109375 187.5 161.367188 C 187.5 160.625 187.425781 159.890625 187.28125 159.160156 C 187.136719 158.433594 186.921875 157.726562 186.640625 157.039062 C 186.355469 156.355469 186.007812 155.703125 185.59375 155.085938 C 185.183594 154.46875 184.714844 153.898438 184.1875 153.371094 C 183.664062 152.847656 183.09375 152.378906 182.476562 151.964844 C 181.859375 151.554688 181.207031 151.207031 180.519531 150.921875 C 179.835938 150.636719 179.128906 150.421875 178.398438 150.277344 C 177.671875 150.132812 176.9375 150.0625 176.195312 150.0625 Z M 176.195312 150.0625 "/>
<path style=" stroke:none;fill-rule:nonzero;fill:rgb(65.879822%,65.879822%,65.879822%);fill-opacity:1;" d="M 161.863281 177.433594 C 161.121094 177.433594 160.386719 177.507812 159.660156 177.652344 C 158.929688 177.796875 158.222656 178.011719 157.539062 178.296875 C 156.851562 178.578125 156.199219 178.925781 155.582031 179.339844 C 154.964844 179.753906 154.394531 180.222656 153.871094 180.746094 C 153.34375 181.269531 152.875 181.84375 152.464844 182.460938 C 152.050781 183.078125 151.703125 183.726562 151.417969 184.414062 C 151.136719 185.097656 150.921875 185.804688 150.777344 186.535156 C 150.632812 187.261719 150.558594 187.996094 150.558594 188.742188 C 150.558594 189.484375 150.632812 190.21875 150.777344 190.945312 C 150.921875 191.675781 151.136719 192.382812 151.417969 193.066406 C 151.703125 193.753906 152.050781 194.402344 152.464844 195.019531 C 152.875 195.640625 153.34375 196.210938 153.871094 196.734375 C 154.394531 197.257812 154.964844 197.726562 155.582031 198.140625 C 156.199219 198.554688 156.851562 198.902344 157.539062 199.183594 C 158.222656 199.46875 158.929688 199.683594 159.660156 199.828125 C 160.386719 199.972656 161.121094 200.046875 161.863281 200.046875 C 162.605469 200.046875 163.34375 199.972656 164.070312 199.828125 C 164.796875 199.683594 165.503906 199.46875 166.191406 199.183594 C 166.878906 198.902344 167.527344 198.554688 168.144531 198.140625 C 168.761719 197.726562 169.335938 197.257812 169.859375 196.734375 C 170.382812 196.210938 170.851562 195.640625 171.265625 195.019531 C 171.675781 194.402344 172.027344 193.753906 172.308594 193.066406 C 172.59375 192.382812 172.808594 191.675781 172.953125 190.945312 C 173.097656 190.21875 173.171875 189.484375 173.171875 188.742188 C 173.171875 187.996094 173.097656 187.261719 172.953125 186.535156 C 172.808594 185.804688 172.59375 185.097656 172.308594 184.414062 C 172.027344 183.726562 171.675781 183.078125 171.265625 182.460938 C 170.851562 181.84375 170.382812 181.269531 169.859375 180.746094 C 169.335938 180.222656 168.761719 179.753906 168.144531 179.339844 C 167.527344 178.925781 166.878906 178.578125 166.191406 178.296875 C 165.503906 178.011719 164.796875 177.796875 164.070312 177.652344 C 163.34375 177.507812 162.605469 177.433594 161.863281 177.433594 Z M 161.863281 177.433594 "/>
<path style=" stroke:none;fill-rule:nonzero;fill:rgb(100%,74.119568%,29.019165%);fill-opacity:1;" d="M 192.792969 176.195312 C 192.050781 176.195312 191.316406 176.265625 190.589844 176.410156 C 189.859375 176.554688 189.152344 176.769531 188.46875 177.054688 C 187.78125 177.339844 187.128906 177.6875 186.511719 178.097656 C 185.894531 178.511719 185.324219 178.980469 184.800781 179.503906 C 184.277344 180.03125 183.808594 180.601562 183.394531 181.21875 C 182.980469 181.835938 182.632812 182.488281 182.347656 183.171875 C 182.066406 183.859375 181.851562 184.566406 181.707031 185.292969 C 181.5625 186.023438 181.488281 186.757812 181.488281 187.5 C 181.488281 188.242188 181.5625 188.976562 181.707031 189.707031 C 181.851562 190.433594 182.066406 191.140625 182.347656 191.828125 C 182.632812 192.511719 182.980469 193.164062 183.394531 193.78125 C 183.808594 194.398438 184.277344 194.96875 184.800781 195.496094 C 185.324219 196.019531 185.894531 196.488281 186.511719 196.902344 C 187.128906 197.3125 187.78125 197.660156 188.46875 197.945312 C 189.152344 198.230469 189.859375 198.445312 190.589844 198.589844 C 191.316406 198.734375 192.050781 198.804688 192.792969 198.804688 C 193.535156 198.804688 194.273438 198.734375 195 198.589844 C 195.726562 198.445312 196.433594 198.230469 197.121094 197.945312 C 197.808594 197.660156 198.457031 197.3125 199.074219 196.902344 C 199.691406 196.488281 200.265625 196.019531 200.789062 195.496094 C 201.3125 194.96875 201.78125 194.398438 202.195312 193.78125 C 202.609375 193.164062 202.957031 192.511719 203.238281 191.828125 C 203.523438 191.140625 203.738281 190.433594 203.882812 189.707031 C 204.027344 188.976562 204.101562 188.242188 204.101562 187.5 C 204.101562 186.757812 204.027344 186.023438 203.882812 185.292969 C 203.738281 184.566406 203.523438 183.859375 203.238281 183.171875 C 202.957031 182.488281 202.609375 181.835938 202.195312 181.21875 C 201.78125 180.601562 201.3125 180.03125 200.789062 179.503906 C 200.265625 178.980469 199.691406 178.511719 199.074219 178.097656 C 198.457031 177.6875 197.808594 177.339844 197.121094 177.054688 C 196.433594 176.769531 195.726562 176.554688 195 176.410156 C 194.273438 176.265625 193.535156 176.195312 192.792969 176.195312 Z M 192.792969 176.195312 "/>
</g>
</svg>
